PathFileType	4	(X/Y/Z)	C:/Users/opensim2020/Desktop/walking_exp_matlab/subject03_walking06_straight_03.trc																																																																																																																																		
DataRate	CameraRate	NumFrames	NumMarkers	Units	OrigDataRate	OrigDataStartFrame	OrigNumFrames																																																																																																																														
100	100	4	44	mm	100	2135	280																																																																																																																														
Frame#	Time	LFHD			RFHD			LBHD			RBHD			C7			T10			CLAV			STRN			RBAK			LSHO			LUPA			LELB			LFRM			LWRA			LWRB			LFIN			RSHO			RUPA			RELB			RFRM			RWRA			RWRB			RFIN			LASI			RASI			LPSI			RPSI			LTHI			LKNE			LTIB			LANK			LHEE			LTOE			RTHI			RKNE			RTIB			RANK			RHEE			RTOE			*39			*40			*41			*42			*43		
		X1	Y1	Z1	X2	Y2	Z2	X3	Y3	Z3	X4	Y4	Z4	X5	Y5	Z5	X6	Y6	Z6	X7	Y7	Z7	X8	Y8	Z8	X9	Y9	Z9	X10	Y10	Z10	X11	Y11	Z11	X12	Y12	Z12	X13	Y13	Z13	X14	Y14	Z14	X15	Y15	Z15	X16	Y16	Z16	X17	Y17	Z17	X18	Y18	Z18	X19	Y19	Z19	X20	Y20	Z20	X21	Y21	Z21	X22	Y22	Z22	X23	Y23	Z23	X24	Y24	Z24	X25	Y25	Z25	X26	Y26	Z26	X27	Y27	Z27	X28	Y28	Z28	X29	Y29	Z29	X30	Y30	Z30	X31	Y31	Z31	X32	Y32	Z32	X33	Y33	Z33	X34	Y34	Z34	X35	Y35	Z35	X36	Y36	Z36	X37	Y37	Z37	X38	Y38	Z38	X39	Y39	Z39	X40	Y40	Z40	X41	Y41	Z41	X42	Y42	Z42	X43	Y43	Z43	X44	Y44	Z44
																																																																																																																																					
141	1.4	99.24202	1630.93115	1369.99561	93.57602	1638.2876	1502.94189	-22.25372	1571.80774	1371.43884	-23.41908	1579.11072	1502.52808	-41.09097	1421.37805	1428.64551	-71.05421	1109.14612	1427.91162	80.91944	1346.24158	1436.49866	127.14095	1182.08508	1435.49646	-95.30025	1246.25037	1522.94824	47.51535	1379.42163	1278.35034	50.04726	1180.95544	1208.16736	59.55375	1057.86841	1197.39954	89.31069	930.84821	1202.74268	106.16289	813.33716	1236.28516	92.05589	818.15393	1182.17529	105.95181	734.59106	1196.06787	29.70345	1369.99072	1593.88171	36.85863	1146.67249	1663.78723	56.68341	1035.27637	1676.14172	82.2112	900.44763	1676.95435	120.01399	808.00836	1640.66101	87.69877	800.57758	1684.28857	114.18149	730.6048	1672.43237	102.35011	948.03229	1320.76758	82.88922	940.88232	1558.2168	-62.70594	974.07001	1358.82703	-73.11933	973.02429	1507.59851	56.198	647.08698	1282.56104	68.03848	470.44858	1327.99634	30.53177	279.25998	1325.49426	26.56678	69.87913	1370.1145	-14.49051	35.52594	1403.73645	178.83849	35.17093	1401.35278	52.57994	642.13232	1601.40454	95.67014	467.30371	1585.13245	-49.98211	347.68665	1581.6864	-215.52985	212.98981	1534.28662	-262.47891	225.22067	1476.65454	-167.10803	76.92973	1524.16321	8.69685	1684.85876	1417.16687	NaN	NaN	NaN	NaN	NaN	NaN	NaN	NaN	NaN	NaN	NaN	NaN
142	1.41	109.08781	1631.11218	1370.21436	103.1584	1638.45349	1503.16833	-12.55869	1572.04565	1371.4801	-13.88802	1579.3728	1502.55652	-31.83287	1421.71533	1428.48767	-61.85829	1109.42725	1427.62195	90.1955	1346.50415	1436.60291	136.28882	1182.35083	1435.15686	-86.63725	1246.39636	1522.0708	57.08477	1380.05725	1278.40918	62.61871	1181.97766	1208.2998	74.56445	1059.18799	1197.26489	105.96053	932.48248	1202.87012	123.85477	815.54584	1236.45007	110.99308	820.01007	1181.96033	127.09145	737.20184	1195.26953	38.16385	1369.9425	1593.93115	43.73569	1146.47168	1663.59387	63.29816	1035.09534	1676.2478	87.69231	900.02551	1677.41235	124.68285	807.16461	1641.53735	92.38844	800.09094	1684.95972	118.6124	730.16968	1673.96692	111.2001	948.24377	1319.90076	92.99062	942.10687	1557.35217	-53.59876	974.20966	1358.95923	-63.31057	973.52563	1507.76489	63.48764	647.0791	1282.77026	73.3332	470.3598	1328.3512	33.19962	279.43704	1325.48987	26.73157	70.10682	1370.24133	-14.44668	35.70707	1403.87024	178.89943	35.12816	1401.42676	68.04638	643.55585	1601.46191	114.68066	469.55383	1584.3606	-28.82258	347.90997	1581.04053	-192.573	210.68634	1534.90881	-240.76364	221.19002	1477.55835	-139.7533	76.74638	1525.4978	18.61575	1685.07056	1417.33801	NaN	NaN	NaN	NaN	NaN	NaN	NaN	NaN	NaN	NaN	NaN	NaN
143	1.42	118.90427	1631.21667	1370.52649	112.79816	1638.53906	1503.44849	-2.7176	1572.28174	1371.57422	-4.33831	1579.59094	1502.65942	-22.55974	1422.00439	1428.31165	-52.73931	1109.7218	1427.38159	99.40538	1346.73865	1436.7312	145.35782	1182.55347	1434.81189	-77.76608	1246.49719	1521.22412	66.5735	1380.75354	1278.52405	75.00161	1183.27295	1207.87561	89.51405	1060.69897	1197.44763	122.8473	934.58636	1202.78979	142.15356	818.03003	1236.07422	130.07065	822.33313	1181.77222	148.0663	740.08362	1194.92188	46.61601	1369.92322	1593.9043	50.61178	1146.40076	1663.57947	69.80315	1034.98535	1676.39368	93.20644	899.75629	1677.90259	129.54585	806.56128	1642.54956	97.03497	799.85065	1685.78796	123.23425	729.93787	1675.48999	119.84208	948.33887	1318.97009	103.08276	943.26685	1556.48755	-44.42004	974.28436	1359.23071	-53.49298	974.00604	1508.06213	71.24263	646.84692	1282.96045	78.21632	470.11765	1328.30591	35.97687	279.58524	1325.5636	27.01315	70.31908	1370.34924	-14.41498	35.86049	1404.00208	178.99622	35.08086	1401.48584	83.73082	644.80353	1601.14551	133.43202	471.78836	1583.44104	-7.83397	347.55896	1580.70435	-169.00114	207.20389	1535.48645	-218.40143	215.89359	1478.62439	-111.32186	75.80201	1526.11218	NaN	NaN	NaN	NaN	NaN	NaN	NaN	NaN	NaN	NaN	NaN	NaN	NaN	NaN	NaN
144	1.43	128.69263	1631.23645	1370.92493	122.43328	1638.51331	1503.90894	6.98625	1572.49768	1371.79663	5.21989	1579.75342	1502.82202	-13.33105	1422.38696	1428.24634	-43.43953	1109.82349	1427.2002	108.57832	1346.86816	1436.73926	154.41544	1182.68762	1434.48657	-69.01132	1246.68665	1520.52771	76.02087	1381.55884	1278.62659	87.2208	1184.63269	1207.99036	104.2655	1062.36499	1197.42163	139.42281	936.94196	1203.10706	159.66513	820.42749	1236.35559	149.03197	824.96045	1181.43359	169.16559	743.43463	1194.44666	55.08839	1369.94324	1593.89172	57.65008	1146.47144	1663.75269	76.02006	1034.94849	1676.47778	98.61372	899.62073	1678.47864	134.50618	806.086	1643.44238	101.8027	799.72693	1686.62146	127.98112	729.89191	1677.01501	128.71854	948.40814	1318.14612	113.14713	944.16003	1555.63611	-35.51666	974.25983	1359.59265	-43.77613	974.36694	1508.42004	78.1635	646.66901	1283.09778	83.38612	469.92603	1328.22278	38.92103	279.75391	1325.46936	27.25538	70.54552	1370.39758	-14.41717	36.07083	1404.06995	179.05656	35.04505	1401.48767	99.11104	646.11987	1600.83374	151.8304	474.05212	1582.41333	13.53361	346.4722	1580.29102	-144.87863	202.76193	1535.87769	-195.44052	209.43211	1479.66882	-81.77664	74.416	1526.37024	34.91957	1681.60962	1415.48438	NaN	NaN	NaN	NaN	NaN	NaN	NaN	NaN	NaN	NaN	NaN	NaN
